<?xml version="1.0" standalone="no"?><!DOCTYPE svg PUBLIC "-//W3C//DTD SVG 1.1//EN" "http://www.w3.org/Graphics/SVG/1.1/DTD/svg11.dtd"><svg t="1739525598773" class="icon" viewBox="0 0 1183 1024" version="1.1" xmlns="http://www.w3.org/2000/svg" p-id="955" xmlns:xlink="http://www.w3.org/1999/xlink" width="231.0546875" height="200"><path d="M598.339711 101.356247m283.185595 163.497279l18.561718 10.716613q283.185595 163.497279 119.688316 446.682874l-10.716614 18.561719q-163.497279 283.185595-446.682874 119.688315l-18.561718-10.716613q-283.185595-163.497279-119.688315-446.682874l10.716613-18.561718q163.497279-283.185595 446.682874-119.688316Z" fill="#51DBAB" p-id="956"></path><path d="M772.429925 132.528119c176.703757 176.703757 176.703757 463.198049 0 639.901806-176.703757 176.703757-463.198049 176.703757-639.901806 0-176.703757-176.703757-176.703757-463.198049 0-639.901806 176.703757-176.703757 463.198049-176.703757 639.901806 0zM451.09201 480.17884L294.36026 636.911796c-7.637917 7.637917-20.021479 7.637917-27.659396 0-7.637917-7.637917-7.637917-20.021479 0-27.659396l156.806561-156.80656-156.392689-157.234911c-7.616198-7.65843-7.583619-20.041991 0.07481-27.658189 7.65843-7.617405 20.041991-7.584826 27.65819 0.073604l156.319085 157.161307 157.27111-157.272317c7.637917-7.637917 20.021479-7.637917 27.659395 0 7.637917 7.637917 7.637917 20.021479 0 27.659396L478.751406 452.520651l156.915156 157.760998c7.617405 7.65843 7.584826 20.041991-0.073604 27.659396-7.65843 7.617405-20.041991 7.583619-27.659395-0.074811L451.09201 480.17884z" fill="#B8F2DE" opacity=".9" p-id="957"></path></svg>
